{"title":"Goodbye Bafana [2007] BRRip XviD-D3MT","uid":6310444,"size":1133819014,"categoryP":"video","categoryS":"movies","magnet":"?xt=urn:btih:2af8877d3f1587e44227f528bb8b80790b8f5227&amp;dn=Goodbye+Bafana+%5B2007%5D+BRRip+XviD-D3MT&amp;tr=udp%3A%2F%2Ftracker.openbittorrent.com%3A80&amp;tr=udp%3A%2F%2Fopen.demonii.com%3A1337&amp;tr=udp%3A%2F%2Ftracker.coppersurfer.tk%3A6969&amp;tr=udp%3A%2F%2Fexodus.desync.com%3A6969","seeders":0,"leechers":1,"uploader":"arihantkatariya","files":2,"time":1302516745,"description":"Format : AVI\nFormat/Info : Audio Video Interleave\nFormat profile : OpenDML\nFile size : 1.02 GiB\nDuration : 1h 57mn\nOverall bit rate : 1 239 Kbps\nWriting application : Lavf52.39.1\n\nVideo\nID : 0\nFormat : xvid\nCodec ID : xvid\nDuration : 1h 57mn\nBit rate : 67.7 Kbps\nWidth : 624 pixels\nHeight : 272 pixels\nDisplay aspect ratio : 2.25:1\nFrame rate : 24.000 fps\nBits/(Pixel*Frame) : 0.017\nStream size : 57.1 MiB (5%)\n\nAudio\nID : 1\nFormat : MPEG Audio\nFormat version : Version 1\nFormat profile : Layer 2\nCodec ID : 50\nDuration : 1h 57mn\nBit rate mode : Constant\nBit rate : 64.0 Kbps\nChannel(s) : 2 channels\nSampling rate : 48.0 KHz\nCompression mode : Lossy\nStream size : 650 KiB (0%)\nAlignment : Aligned on interleaves\nInterleave, duration : 122 ms (2.94 video frames) ","torrent":{"xt":"urn:btih:2af8877d3f1587e44227f528bb8b80790b8f5227","amp;dn":"Goodbye+Bafana+%5B2007%5D+BRRip+XviD-D3MT","amp;tr":["udp%3A%2F%2Ftracker.openbittorrent.com%3A80","udp%3A%2F%2Fopen.demonii.com%3A1337","udp%3A%2F%2Ftracker.coppersurfer.tk%3A6969","udp%3A%2F%2Fexodus.desync.com%3A6969"],"infoHash":"2af8877d3f1587e44227f528bb8b80790b8f5227","infoHashBuffer":{"type":"Buffer","data":[42,248,135,125,63,21,135,228,66,39,245,40,187,139,128,121,11,143,82,39]},"announce":[],"urlList":[]}}